<?xml version="1.0" encoding="utf-8" ?><svg xmlns="http://www.w3.org/2000/svg" xmlns:xlink="http://www.w3.org/1999/xlink" width="610" height="92" viewBox="0 0 610 92"><path fill="white" d="M0 0L610 0L610 92L0 92L0 0Z"/><path fill="#565556" d="M44.9003 3.4066C55.9618 2.17575 70.7794 6.61303 79.0989 13.8476C110.59 41.2322 91.6516 83.1584 52.4964 87.5136C49.4944 87.5986 46.4568 87.6583 43.4586 87.4352C22.5214 85.8776 2.71959 69.5929 1.49707 47.7682C0.950771 37.2583 4.60341 26.9619 11.6515 19.144C20.19 9.6739 32.1607 4.00786 44.9003 3.4066Z"/><path fill="white" d="M42.8327 4.28769C56.2619 3.52191 66.7434 5.55273 77.8559 13.7949C86.1066 20.1494 92.2812 29.5562 93.5677 39.9784C96.7338 65.6268 77.6212 83.4286 53.5265 86.6295C50.5423 86.7812 47.6877 86.8872 44.7004 86.7304C24.1412 85.6511 4.78552 70.7736 2.50634 49.5605C1.4219 39.3776 4.41772 29.18 10.838 21.2001C18.8102 11.3153 30.2858 5.62774 42.8327 4.28769Z"/><path fill="#13579C" d="M13.6097 23.3453C23.7976 25.7184 31.2325 29.8977 38.3833 37.565C37.5472 40.2972 37.4161 43.0308 38.6056 45.6928C40.2037 49.2695 43.2768 50.8261 46.7284 52.1569C50.561 62.5136 49.8258 73.4229 46.5125 83.7795C45.1161 84.2105 42.197 83.1683 40.789 82.6746C29.3894 78.6769 20.4601 71.0523 15.1948 60.1036C9.57108 48.4096 9.3459 35.4932 13.6097 23.3453Z"/><path fill="#134EFE" d="M81.3225 23.5568C81.842 23.489 82.1491 23.4837 82.6406 23.7127C83.409 24.8117 83.7943 26.3227 84.1173 27.6196C87.1575 39.8237 85.6028 52.8897 79.0687 63.7135C72.7008 74.2621 63.151 80.717 51.3095 83.6404C50.8829 83.7279 50.6297 83.6584 50.2278 83.5031C49.8068 82.1453 51.1984 79.1021 51.544 77.5758C52.0233 75.4594 52.3064 73.2687 52.4491 71.1046C52.8748 64.6482 52.0768 58.4668 50.0556 52.3275C51.0426 52.0974 52.07 51.802 53.0127 51.4337C55.775 50.3547 58.1231 48.2521 59.318 45.5212C60.7324 42.2887 60.2425 39.3238 58.9977 36.1513C65.1762 29.6859 72.6525 25.5911 81.3225 23.5568Z"/><path fill="#FC6500" d="M47.1574 33.1765C51.5358 32.1349 55.9256 34.8553 56.9396 39.2386C57.9536 43.6219 55.2041 47.9925 50.8127 48.9781C46.4608 49.9548 42.1363 47.2365 41.1314 42.8926C40.1266 38.5487 42.8183 34.2086 47.1574 33.1765Z"/><path fill="#134EFE" d="M316.449 5.49742C325.715 5.45475 332.407 5.55808 332.324 17.1438C332.284 22.791 333.388 32.3293 329.877 37.1062C328.047 39.596 322.895 39.8159 320.036 39.9281C303.404 40.1645 303.318 37.206 303.432 20.9468C303.513 9.41974 303.937 5.89261 316.449 5.49742Z"/><path fill="white" d="M309.773 10.0855C313.562 8.74619 320.809 8.47026 324.755 9.66298C327.545 10.5065 327.367 12.1216 328.346 14.1377C328.297 19.0947 328.29 24.0519 328.324 29.009C328.263 31.4365 328.326 32.4939 326.612 34.4921C323.748 37.8299 311.074 37.1985 308.587 34.1872C306.33 31.4536 307.809 20.6199 307.324 16.813C307.002 14.2864 307.93 11.8956 309.773 10.0855Z"/><path fill="#13579C" d="M311.929 49.4295C319.595 49.4949 327.261 49.5156 334.927 49.4916C333.256 56.0741 331.788 62.726 330.279 69.3475C329.288 73.6948 328.115 78.0891 327.426 82.4933C319.745 82.6937 312.027 82.5216 304.342 82.502C306.941 71.5096 309.633 60.4877 311.929 49.4295Z"/><path fill="white" d="M312.201 57.0415C312.504 57.1073 313.255 57.1741 313.455 57.3804C314.667 58.6329 314.01 64.0826 313.975 65.84C317.778 66.0665 321.642 65.9154 325.452 65.899C325.453 63.642 325.078 60.8502 325.413 58.6545C325.515 57.985 325.989 57.5272 326.504 57.1346C326.703 57.1544 327.059 57.1256 327.183 57.2828C328.107 58.4605 327.863 73.9159 327.571 76.1913C327.461 77.0479 327.279 77.1533 326.624 77.6593C326.207 77.4694 325.949 77.2215 325.636 76.8999C324.994 74.2685 325.411 70.8111 325.462 68.1053C321.628 68.0549 317.794 68.0655 313.96 68.137C313.959 70.5916 314.344 73.2683 313.954 75.6894C313.825 76.4874 313.66 76.8831 313.008 77.3484L312.227 77.0895C312.12 76.9732 312.024 76.8385 311.963 76.6924C311.353 75.2462 311.461 58.6284 312.201 57.0415Z"/><path fill="#13579C" d="M487.463 49.4429L508.049 49.5062C505.91 59.3555 502.753 72.7229 501.235 82.5006L480.459 82.5014C480.978 80.4798 481.316 79.1761 481.563 77.0806L481.577 76.7385C482.428 74.4169 482.928 70.8961 483.506 68.4004C484.923 62.2739 485.925 55.4952 487.463 49.4429Z"/><path fill="white" d="M488.254 57.0306C488.791 57.1418 489.29 57.3225 489.804 57.5103C490.866 58.9449 490.231 72.6321 490.236 75.2444C491.866 75.2441 493.5 75.1477 495.13 75.1037C496.88 75.0566 500.225 74.6965 501.536 75.9376L501.455 77.1693C496.932 77.2553 492.408 77.2878 487.884 77.2667C487.912 72.4559 487.17 61.0052 488.254 57.0306Z"/><path fill="#134EFE" d="M159.491 35.4062L164.233 17.3715C165.05 14.2853 166.269 9.09979 167.395 6.26986C167.575 6.17006 167.761 6.08301 167.953 6.00936C168.751 5.70921 170.043 5.71664 170.842 6.06817C171.079 7.04546 170.262 9.53039 169.965 10.6348C167.331 19.4047 164.247 30.7422 162.056 39.5874L157.072 39.5449C154.843 29.719 151.282 19.4497 149.068 9.56051C146.495 19.5827 143.622 29.541 141.116 39.5699L136.006 39.5663C134.102 32.2602 132.135 24.9708 130.105 17.6987C129.23 14.4924 127.609 9.09717 127.126 5.96226L130.794 5.85234C133.457 15.7005 136.061 25.5646 138.606 35.444C139.931 29.436 141.82 22.9947 143.382 16.9929C144.079 14.3125 145.572 8.20867 146.45 5.95805C148.169 5.90476 150.029 5.92884 151.761 5.91703C152.158 8.21469 153.362 11.951 153.99 14.3932C155.779 21.3597 157.986 28.38 159.491 35.4062Z"/><path fill="#134EFE" d="M493.497 5.90595L499.782 5.90315L512.378 39.573L508.434 39.5799C507.694 36.6105 506.347 33.6138 505.075 30.8321C503.476 30.9529 501.845 30.9136 500.242 30.9341L488.05 30.9628C487.133 33.8597 486.009 36.723 484.99 39.5879L480.968 39.5396C484.378 31.3651 487.193 22.77 490.443 14.5149C491.531 11.75 492.662 8.74663 493.497 5.90595Z"/><path fill="white" d="M496.508 9.10167C498.453 10.4183 502.975 24.6073 504.038 27.718L496.742 27.6664L489.371 27.6457C491.574 21.8763 493.521 14.3281 496.508 9.10167Z"/><path fill="#565556" d="M101.271 45.0918L102.929 45.0667C131.6 44.678 160.331 45.0386 189.008 45.0456L357.327 45.0425L522.959 45.0439L585.069 45.0485C591.87 45.0636 598.689 44.8703 605.486 44.9791C606.626 44.9974 607.553 44.888 608.386 45.6984C604.56 46.3088 600.103 45.8814 596.194 45.8855L569.34 45.8422L472.684 45.8726L227.639 45.8691C187.29 45.8753 146.892 45.4273 106.549 45.8993C104.877 45.9188 102.498 46.2902 101.271 45.0918Z"/><path fill="#134EFE" d="M339.396 5.87311L345.205 5.89771C350.66 15.398 357.767 26.7575 363.666 36.057C363.449 26.2 363.593 15.8259 363.579 5.92945L367.302 5.85316L367.329 29.0326C367.328 30.8761 367.424 38.0185 367.193 39.3142L366.657 39.5627L361.355 39.5385C360.314 37.2474 355.968 30.373 354.41 27.8999C350.721 22.0439 346.886 15.1971 343.034 9.54416C343.16 19.5595 343.193 29.5757 343.132 39.5916L339.335 39.5495C339.662 28.7466 339.404 16.7638 339.396 5.87311Z"/><path fill="#134EFE" d="M541.2 5.91531L544.947 5.88433C544.854 17.1114 544.869 28.3391 544.992 39.5658L539.063 39.5846C536.573 34.981 533.63 30.5252 530.899 26.0579C527.523 20.5328 524.254 14.9019 520.624 9.54131C521.034 19.4934 520.692 29.6003 520.708 39.5671L517.005 39.6015L517.009 5.93142L522.768 5.91178L541.203 36.0772L541.2 5.91531Z"/><path fill="#134EFE" d="M212.88 5.88186L216.595 5.90415C216.854 16.8101 216.609 28.5443 216.64 39.5589L210.751 39.5632C205.614 30.1978 198.077 18.6371 192.315 9.33061C192.694 18.8506 192.431 29.9586 192.425 39.597L188.743 39.6237C188.604 28.5337 188.724 16.9794 188.772 5.88074L194.561 5.92922C195.879 8.56495 199.184 13.6101 200.845 16.3125L212.984 36.0819C212.695 26.38 212.941 15.7051 212.88 5.88186Z"/><path fill="#134EFE" d="M387.287 5.50197C396.386 5.41757 400.929 5.30289 401.226 15.4105L397.333 15.3776C397.3 13.8836 397.46 11.3957 396.313 10.2187C394.649 8.51126 381.041 8.57137 380.233 10.3369C373.147 25.8199 393.513 17.3335 399.642 23.3161C401.381 25.0141 401.562 27.0423 401.536 29.2967C402.219 40.5276 395.904 39.9465 387.265 39.9752C377.606 39.9331 374.651 38.7227 374.647 28.5514L378.451 28.6555C378.602 38.0772 381.767 36.2372 390.13 36.6187C393.373 36.7667 398.135 36.0087 397.686 31.8707C397.431 29.5193 398.484 25.4585 395.115 24.8085C388.005 23.0005 374.462 26.7133 375.077 15.3141C375.598 5.64521 378.601 5.68463 387.287 5.50197Z"/><path fill="#134EFE" d="M230.739 5.73918C233.578 5.55386 236.423 5.47015 239.268 5.4882C247.371 5.53011 250.543 7.1171 250.459 15.4221L246.618 15.4325C246.595 14.2118 246.718 10.8964 245.619 10.2581C242.467 8.42749 237.335 8.94969 233.786 9.10141C232.174 9.17032 229.944 9.93824 228.949 11.1907C228.134 12.0227 228.167 15.7705 228.429 16.8171C230.064 23.3406 244.262 18.8599 248.468 22.7402C251.839 25.85 251.721 33.7658 249.159 37.1191C247.423 39.3919 245.309 39.5735 242.765 39.8722C238.285 39.9978 230.06 40.9689 226.485 37.7744C224.015 35.5669 224.031 31.6897 223.94 28.5997L227.824 28.588C227.598 37.3651 230.791 36.4256 238.362 36.612C241.202 36.6819 243.773 36.3599 246.379 35.1902C246.902 33.1932 247.815 26.7608 245.769 25.4735C240.618 22.2871 226.042 26.8856 224.718 18.3613C223.796 12.4249 224.269 7.13536 230.739 5.73918Z"/><path fill="#134EFE" d="M282.845 5.49521C293.095 5.19206 297.66 5.40841 298.322 16.4755C297.108 16.5886 295.556 16.5326 294.308 16.5187C294.313 14.1992 294.345 12.016 292.582 10.4079C290.338 8.3614 278.507 8.38146 277.032 10.7308C274.196 15.2468 275.7 24.9655 275.517 30.3489C275.489 31.5292 276.484 34.611 277.466 35.204C280.808 37.2217 286.726 36.6407 290.503 36.16C294.852 34.5209 294.31 31.783 294.403 27.7225L298.258 27.7602C298.171 35.4218 297.359 39.5605 288.639 39.8698C280.317 40.2536 271.463 40.8369 271.576 29.651C271.636 23.7761 270.324 13.419 273.837 8.32265C275.461 5.96732 280.187 5.61493 282.845 5.49521Z"/><path fill="#134EFE" d="M564.306 5.49396C574.297 5.48341 578.218 5.57153 578.903 16.4628C577.733 16.5858 576.143 16.5426 574.931 16.5414C574.812 14.2602 574.924 11.6422 572.933 10.1791C570.537 8.41807 558.4 8.27286 557.245 11.1867C555.07 16.6772 556.069 25.705 556.335 31.6502C556.503 37.925 567.608 36.9312 571.792 35.9841C575.36 34.2503 574.926 31.1561 574.948 27.737C576.193 27.7017 577.572 27.7873 578.828 27.8407C578.687 36.005 577.812 39.6281 568.391 39.9575C564.787 40.0834 557.496 40.3194 554.771 37.5887C551.207 34.0173 552.185 22.4341 552.16 17.7599C552.108 7.76672 555.078 5.84882 564.306 5.49396Z"/><path fill="#134EFE" d="M228.297 57.2629C231.049 57.0899 235.284 56.7353 237.705 58.2805C238.826 58.996 239.266 60.6246 239.523 61.8568C240.245 65.3153 240.447 72.3431 238.442 75.3629C237.505 76.7746 236.167 77.0363 234.623 77.3417C231.353 77.5645 227.303 77.933 224.468 76.0078C223.672 74.8185 223.322 73.497 223.117 72.092C222.606 68.5929 222.15 61.9715 224.366 59.0157C225.389 57.6514 226.73 57.4939 228.297 57.2629Z"/><path fill="white" d="M228.098 59.3208C230.434 59.1583 233.995 58.726 236.091 59.858C236.62 60.1432 236.888 60.7699 237.056 61.3332C237.911 64.1904 238.26 71.337 236.831 73.9737C236.336 74.8871 235.489 75.0754 234.558 75.3533C232.333 75.4954 228.884 75.9343 226.889 74.912C226.114 74.5148 225.88 74.0958 225.616 73.2844C224.728 70.5596 224.538 63.2826 225.846 60.7569C226.326 59.8279 227.169 59.6237 228.098 59.3208Z"/><path fill="#134EFE" d="M432.217 5.92645C433.133 5.8729 435.267 5.52784 435.778 6.37188L435.806 6.4176C436.144 6.97702 436.014 8.44462 435.991 9.15534C435.941 15.7112 436.095 22.2716 435.944 28.8341C435.882 31.5484 435.375 35.5407 433.258 37.5466C430.265 40.3833 425.649 39.7235 421.961 39.9349C407.402 40.7693 408.557 32.9236 408.583 21.3133L408.583 5.94403L412.372 5.86312C412.604 13.8115 412.191 21.8659 412.433 29.8259C412.736 37.4302 417.832 35.7457 422.923 36.1364C433.962 36.9836 432.283 30.552 432.267 21.8439L432.217 5.92645Z"/><path fill="#134EFE" d="M577.584 5.95067C578.97 5.83114 580.374 5.90751 581.763 5.94298C585.716 11.0772 589.515 16.4029 593.275 21.6815C596.724 16.294 600.884 11.071 604.746 5.96731L609.146 5.874C606.904 9.43432 603.964 12.8235 601.413 16.1881C599.429 18.9754 597.286 21.6686 595.215 24.3932C595.034 29.4412 595.164 34.5335 595.164 39.5866L591.48 39.6071L591.463 24.6192C586.821 18.6172 581.552 12.4107 577.584 5.95067Z"/><path fill="#134EFE" d="M100.624 5.93511L116.902 5.91689C119.029 5.91466 123.824 5.77247 125.635 6.11623C126.133 6.96413 126.038 8.42723 126.058 9.45568L115.209 9.50034C115.304 15.8485 115.239 22.3689 115.252 28.7314L115.233 39.597L111.382 39.58L111.452 9.48877L100.535 9.47236L100.624 5.93511Z"/><path fill="#134EFE" d="M459.408 5.9368L484.868 5.91542L484.862 9.48744L473.928 9.50005L473.991 28.7277L474.036 39.5756L470.254 39.577L470.304 9.49868L459.5 9.48737L459.408 5.9368Z"/><path fill="#134EFE" d="M443.82 5.9168L447.569 5.94019C447.515 15.9771 447.518 26.0143 447.578 36.0512C450.272 36.0893 465.466 35.7971 466.558 36.3425C466.969 37.2211 466.786 38.5781 466.735 39.5835C459.264 39.4472 451.39 39.5529 443.89 39.5499C443.691 28.488 443.833 17.011 443.82 5.9168Z"/><path fill="#134EFE" d="M542.344 74.695C543.983 69.9693 545.284 61.2168 547.549 57.3531C548.138 57.2056 548.455 57.2586 549.013 57.4829C549.271 58.4694 548.676 59.9444 548.422 60.9596C547.137 65.5053 546.278 70.4373 544.625 74.8395C544.193 75.991 543.764 76.9135 542.614 77.4398L541.863 77.0774C539.833 74.6974 537.398 63.3534 536.431 59.8646C535.006 64.4137 534.096 69.1235 532.727 73.6856C532.292 75.1342 531.602 76.8659 530.209 77.6163C529.72 77.5589 529.484 77.5996 529.146 77.1983C528.223 76.1047 523.605 58.9442 523.743 57.2394C524.253 57.2714 525.009 57.2604 525.445 57.5377C526.422 58.1588 529.77 72.9498 530.171 74.8626L534.92 57.2765L537.939 57.3867C539.52 63.088 541.275 68.8773 542.344 74.695Z"/><path fill="#134EFE" d="M298.162 75.0102C298.918 71.884 301.738 58.4309 303.592 56.9973L304.153 57.1199C304.302 57.2245 304.392 57.3424 304.484 57.4982C304.935 58.2587 304.499 59.4196 304.295 60.2176C303.293 63.5016 300.878 75.7196 298.808 77.4709C298.408 77.5125 298.275 77.5679 297.931 77.345C295.384 75.6917 292.843 62.6777 292.088 59.2156C291.524 61.6503 288.304 76.1041 286.947 76.9641C286.03 77.1384 285.427 77.1701 284.529 76.8862C283.603 75.4512 279.298 58.8758 279.442 57.112C279.975 57.2177 280.509 57.3792 281.036 57.5148C282.385 58.7963 285.279 72.3458 285.962 75.0635C286.933 70.8469 288.58 61.9899 290.487 58.4835C290.932 57.6639 291.355 57.277 292.238 57.0161C292.413 57.0883 292.583 57.1708 292.742 57.2748C294.92 58.6958 297.469 71.835 298.162 75.0102Z"/><path fill="#134EFE" d="M128.083 57.068C128.168 57.0782 128.252 57.0907 128.336 57.1056C129.096 57.2438 129.454 57.171 129.898 57.8211C129.512 61.0828 125.922 74.4575 124.433 77.0906C123.569 77.3077 123.353 77.3482 122.505 77.0922C121.995 76.6363 121.655 76.1587 121.403 75.5217C120.894 74.2313 120.78 72.7783 120.416 71.4405C119.291 67.3073 118.021 63.226 117.249 59.0035C115.721 65.1167 114.12 71.2116 112.447 77.2868L109.527 77.2886C108.428 72.4812 107.051 67.7279 105.752 62.9709C105.329 61.5275 104.185 58.7942 104.807 57.4187L105.951 57.4543C106.092 57.5505 106.44 57.7308 106.536 57.8545C107.495 59.0801 110.458 72.5742 111.038 74.9488C112.288 70.0998 113.406 63.5883 115.347 59.1191C115.803 58.0698 116.229 57.4284 117.316 57.0025C117.489 57.0675 117.655 57.1441 117.81 57.2435C119.943 58.6061 122.559 71.7302 123.238 74.8237C124.801 68.8983 126.289 62.9278 128.083 57.068Z"/><path fill="#134EFE" d="M362.219 57.3049C363.376 57.3621 364.553 57.3298 365.713 57.34C367.685 62.3371 371.794 72.0079 372.811 76.8198L372.491 77.2537C372.115 77.3167 371.778 77.4502 371.429 77.2663C370.095 76.5629 369.512 73.5416 369.073 72.1616L365.389 72.1131L358.847 72.1556C358.382 73.6308 357.973 75.8749 356.949 77.0339C356.269 77.2478 356.067 77.2729 355.374 77.1137C354.832 75.5988 361.213 59.9786 362.219 57.3049Z"/><path fill="white" d="M363.772 59.1059C364.982 59.7303 367.647 68.4657 368.259 70.2225L364.943 70.2513L359.564 70.2149C361.236 66.7302 362.425 62.7442 363.772 59.1059Z"/><path fill="#134EFE" d="M560.516 57.3512C561.696 57.3336 562.89 57.4083 564.07 57.444C565.888 63.4383 568.984 69.1216 570.591 75.152C570.788 75.8909 571.106 76.5598 570.716 77.2365C570.466 77.2741 569.996 77.4116 569.78 77.303C568.394 76.605 567.793 73.5761 567.337 72.1645L564.156 72.1066L557.114 72.1331C556.721 73.4075 556.203 76.0552 555.157 76.8883C554.586 77.3429 554.302 77.2727 553.62 77.203L553.368 76.6907C555.096 70.2247 558.011 63.5737 560.516 57.3512Z"/><path fill="white" d="M562.083 59.1035C563.454 60.0206 565.841 68.2787 566.524 70.2433L563.014 70.2399L557.807 70.2392C559.478 66.647 560.406 62.7144 562.083 59.1035Z"/><path fill="#134EFE" d="M470.884 57.2924C471.947 57.2986 473.426 57.4357 474.52 57.5038C475.457 60.6444 480.311 73.9494 481.577 76.7385L481.563 77.0806C479.956 77.3243 479.439 77.3493 478.755 75.519C478.357 74.4526 478.062 73.2909 477.748 72.1933C474.485 72.0455 470.751 72.1409 467.452 72.1535C467.001 73.5749 466.386 76.094 465.361 77.0856C464.484 77.2627 464.529 77.408 463.886 77.0836C463.748 75.5514 469.929 59.7745 470.884 57.2924Z"/><path fill="white" d="M472.455 59.1411C473.8 60.1281 476.198 68.1998 476.912 70.1819L473.658 70.26L468.182 70.2204C469.721 66.5803 470.926 62.794 472.455 59.1411Z"/><path fill="#134EFE" d="M176.686 5.89252L180.491 5.90375L180.483 39.5683L176.675 39.606L176.686 5.89252Z"/><path fill="#134EFE" d="M598.419 57.2402C600.773 57.0714 603.623 56.9378 605.918 57.5022C607.16 57.8076 608.55 58.3091 609.232 59.4729C609.781 60.4106 609.598 61.375 609.328 62.36C608.823 62.8563 608.633 62.9608 607.95 63.1475C607.22 62.584 607.062 60.9669 606.862 60.0444C605.918 59.1975 604.141 59.2147 602.913 59.157C601.014 59.068 598.414 58.9671 596.918 60.3294C596.491 61.131 596.289 62.3552 596.414 63.2585C596.991 67.4361 605.549 65.412 608.417 67.6146C609.287 68.2831 609.799 69.2458 609.936 70.3266C610.143 71.9627 609.779 74.5564 608.731 75.8716C607.707 77.1555 606.073 77.269 604.567 77.4395C601.954 77.4944 598.253 77.9852 595.909 76.5805C594.961 76.0127 594.536 75.1914 594.288 74.1546C594.072 73.2547 593.698 71.8412 594.208 71.0129C594.781 70.7407 595.097 70.6806 595.717 70.8275C596.374 71.6794 596.355 73.1807 596.599 74.264C597.52 75.3102 598.451 75.3608 599.81 75.4616C601.744 75.6049 605.498 75.8583 606.995 74.571C607.91 72.7831 607.45 70.544 607.225 68.627C604.071 68.2457 598.362 68.677 595.798 66.7802C594.846 66.0764 594.34 64.9827 594.177 63.8337C593.935 62.1345 594.357 59.9741 595.418 58.5995C596.255 57.5146 597.146 57.4016 598.419 57.2402Z"/><path fill="#134EFE" d="M160.048 74.6946C160.297 71.8405 161.192 68.2883 157.244 68.1235C151.825 67.8973 146.382 69.0547 147.139 61.4524C147.673 56.0966 152.823 57.0301 156.8 57.1259C160.027 57.3531 162.416 58.796 162.299 62.3294L161.92 62.8247C160.785 62.9725 161.069 63.0889 160.165 62.6639C159.721 61.1829 160.276 59.6795 158.285 59.4135C155.849 59.0881 153.072 59.0649 150.647 59.514C149.629 59.7024 149.49 60.9185 149.407 61.7438C148.343 69.8247 160.271 63.0132 162.254 69.1478C162.765 70.7276 162.821 75.2389 161.201 76.1347C159.021 78.1039 151.807 78.0126 149.228 76.6747C147.507 75.7827 145.988 72.7746 146.922 71.09C147.752 70.6659 147.474 70.7696 148.467 70.7944C149.152 71.5116 149.08 72.9531 149.367 74.2615C150.562 76.2405 158.208 75.6718 159.971 74.7359L160.048 74.6946Z"/><path fill="#134EFE" d="M336.057 57.2811C339.001 57.5485 342.043 57.3358 345 57.3292C346.325 57.3263 348.786 57.1668 349.775 58.173C349.968 58.3686 349.89 58.6922 349.885 58.9595C348.288 59.9334 340.302 59.4542 338.008 59.4781C338.108 61.6424 338.04 63.832 338.032 65.9995C341.64 66.1257 345.749 65.4616 349.26 66.3144C349.606 66.8093 349.603 66.8016 349.5 67.3968C347.547 68.6413 342.201 68.0027 339.806 67.9823L338.658 68.0642C337.421 69.4318 338.02 73.3983 338.04 75.2433C341.126 75.2496 344.218 75.2224 347.303 75.282C348.207 75.2995 349.279 75.1204 349.914 75.7807C349.939 76.3835 349.958 76.4773 349.584 76.9872C345.248 77.6564 340.371 77.253 335.969 77.2185C335.931 70.6286 335.599 63.855 336.057 57.2811Z"/><path fill="#134EFE" d="M412.518 57.0704C413.081 57.1524 413.555 57.2804 414.08 57.4987C415.236 59.1058 414.517 63.9851 414.499 66.0221L425.933 66.045C425.996 64.4762 425.53 59.2019 426.053 58.0417C426.103 57.9304 426.154 57.8217 426.216 57.7165C426.827 57.2979 426.884 57.2533 427.615 57.3599C428.052 57.8792 428.04 58.5426 428.087 59.1877C428.231 61.1881 428.593 75.8324 427.938 76.9312C427.79 77.18 427.496 77.4434 427.302 77.6678C426.967 77.5712 426.629 77.4878 426.382 77.2256C425.332 76.1068 425.972 69.6629 426.014 68.0062C422.171 67.9258 418.327 67.9616 414.486 68.1136C414.502 69.5672 414.896 76.2645 414.275 77.0723C413.686 77.2524 413.31 77.3637 412.71 77.1476C411.887 75.791 412.371 59.7037 412.518 57.0704Z"/><path fill="#134EFE" d="M184.028 66.0577C184.077 63.8691 183.462 59.72 184.241 57.7794C184.782 57.333 184.851 57.3182 185.553 57.3408C186.107 58.0195 186.079 58.5252 186.133 59.3883C186.248 61.2242 186.534 76.012 185.997 76.918C185.858 77.1523 185.565 77.4066 185.38 77.6163L184.617 77.3146C183.341 75.6253 184.034 70.1737 184.063 67.968L172.474 68.0209C172.467 69.9265 173.026 75.233 172.409 76.7562C171.802 77.1915 171.651 77.2039 170.901 77.2072C169.66 75.6799 170.364 60.117 170.456 57.1735C171.025 57.2299 171.506 57.34 172.043 57.5357C173.222 59.17 172.503 63.9995 172.465 66.03L184.028 66.0577Z"/><path fill="#134EFE" d="M247.374 57.1431C248.046 57.2015 248.574 57.2319 249.12 57.659C250.413 60.1034 249.238 67.1047 249.257 70.1888C249.265 71.5175 249.502 73.157 250.498 74.1246C251.685 75.2781 253.447 75.3966 255.011 75.3598C256.492 75.325 258.754 75.4062 259.962 74.411C262.936 71.9625 259.654 59.3803 261.703 57.2352C262.41 57.223 262.555 57.2769 263.151 57.6608L263.273 58.5793C263.296 62.5086 263.473 66.4778 263.386 70.4021C263.342 72.3495 262.964 74.5296 261.478 75.9247C259.612 77.676 256.573 77.6903 254.183 77.607C252.251 77.5396 250.193 77.218 248.817 75.7183C246.033 72.6826 247.215 61.3531 247.374 57.1431Z"/><path fill="#134EFE" d="M571.574 57.2115L573.067 57.3047C575.769 58.6451 578.741 64.1893 580.544 66.7651C582.043 64.6275 585.372 58.9527 587.309 57.5769C587.931 57.1354 588.389 57.2301 589.083 57.3374L589.29 57.8309C588.697 59.6954 586.284 62.1117 585.045 63.7077C583.836 65.2722 582.723 66.9188 581.582 68.5331C581.557 71.2714 581.972 74.3804 581.413 77.0491C580.794 77.2363 580.645 77.2466 580.023 77.0531C578.72 75.4155 579.451 70.8956 579.553 68.7853C578.161 66.5883 571.824 59.1875 571.614 57.6745C571.593 57.5193 571.575 57.3683 571.574 57.2115Z"/><path fill="#134EFE" d="M440.984 68.1077C440.329 67.6605 433.434 58.2438 433.407 57.5996L433.85 57.1559C435.989 57.0451 440.924 64.8648 442.265 66.7013C443.504 64.9109 448.591 56.4499 450.657 57.5488C450.574 59.3032 444.832 66.1743 443.378 68.4351C443.326 69.8567 443.374 76.698 442.864 77.2612C441.957 77.2836 442.26 77.387 441.549 76.7603C440.569 74.3609 441.577 71.0953 440.984 68.1077Z"/><path fill="#134EFE" d="M209.462 66.7643C211.418 63.9761 213.422 60.624 216.006 58.3759C216.516 57.9322 217.34 57.1468 218.047 57.1957C217.989 59.3235 215.061 62.4048 213.808 64.0383C212.623 65.4838 211.586 67.202 210.516 68.7424C210.606 71.4523 211.016 74.8029 209.855 77.3367L209.262 77.3705C207.952 75.0408 208.436 71.2349 208.49 68.6597C207.021 66.0664 200.843 59.3887 200.563 57.2187L202.063 57.3139C204.793 58.7244 207.709 64.2201 209.462 66.7643Z"/><path fill="#134EFE" d="M379.486 57.221C380.247 57.3347 380.811 57.308 381.413 57.8196C381.882 62.8741 381.827 70.183 381.276 75.2265C383.527 75.273 390.937 74.6339 392.496 75.5941C392.936 75.8649 392.96 76.5479 393.077 77.0404C388.632 77.5534 383.828 77.2175 379.35 77.214C379.388 73.0093 379.387 68.8043 379.348 64.5996C379.331 62.1984 379.112 59.5871 379.486 57.221Z"/><path fill="#134EFE" d="M507.773 77.2442L507.771 59.444C507.781 58.3047 507.799 57.9885 508.548 57.2533L509.339 57.2963C510.901 58.753 508.853 72.2011 510.124 74.9989C510.252 75.2813 510.963 75.3734 511.358 75.479C513.593 75.1193 518.834 74.7516 520.821 75.8541L521.06 76.3602C520.171 77.6623 513.601 77.3472 512.198 77.132C510.852 77.2213 509.151 77.2118 507.773 77.2442Z"/><path fill="#134EFE" d="M136.961 57.2191C137.54 57.2553 138.091 57.3678 138.658 57.4863C139.67 58.9288 139.073 74.4182 139.055 77.2897C138.21 77.2875 137.76 77.4228 137.085 76.8579C136.422 71.8366 136.967 62.7305 136.961 57.2191Z"/><path fill="#134EFE" d="M398.264 59.5857C398.782 59.5631 399.893 59.5435 400.352 59.46C400.386 62.3228 400.746 75.0241 400.136 76.9021C399.437 77.2487 399.249 77.2178 398.47 77.1265C398.098 76.4282 398.264 61.623 398.264 59.5857Z"/><path fill="#134EFE" d="M398.264 59.5857C395.731 59.3888 393.292 60.0686 391.838 58.6412L391.624 58.0564L391.775 57.765L391.735 58.4792L391.629 58.1572C392.07 57.6487 391.951 57.5952 392.542 57.5615C394.838 57.4303 405.619 56.9098 407.116 57.9641L406.865 58.8893C405.277 59.6956 402.282 59.4502 400.352 59.46C399.893 59.5435 398.782 59.5631 398.264 59.5857Z"/></svg>